<svg fill="none" height="18" viewBox="0 0 16 18" width="16" xmlns="http://www.w3.org/2000/svg"><path d="m13.7429.75h-11.48576c-.96857 0-1.75714.78061-1.75714 1.74788v11.47152c0 .9673.78857 1.7479 1.75714 1.7479h9.71996l-.4542-1.5697 1.0971 1.0097 1.0371.9503 1.8429 1.6121v-15.22182c0-.96727-.7886-1.74788-1.7571-1.74788zm-3.3086 11.0812s-.3086-.3648-.56573-.6873c1.12283-.3139 1.55143-1.0097 1.55143-1.0097-.3514.2291-.6857.3903-.9857.5006-.4286.1782-.84001.297-1.24287.3649-.82286.1527-1.57714.1103-2.22-.0085-.48857-.0933-.90857-.2291-1.26-.3648-.19714-.0764-.41143-.1697-.62572-.2885-.02571-.017-.05142-.0255-.07714-.0424-.01714-.0085-.02571-.017-.03428-.0255-.15429-.0848-.24-.1442-.24-.1442s.41142.6787 1.5 1.0012c-.25715.3224-.57429.7042-.57429.7042-1.89429-.0594-2.61429-1.2897-2.61429-1.2897 0-2.73211 1.23429-4.94665 1.23429-4.94665 1.23429-.91637 2.40857-.89091 2.40857-.89091l.08572.10182c-1.54286.44121-2.25429 1.11151-2.25429 1.11151s.18857-.10182.50571-.24606c.91715-.39879 1.64572-.50909 1.94572-.53454.05143-.00849.09428-.01697.14571-.01697.52286-.06788 1.11429-.08485 1.73143-.01697.81429.09333 1.68853.33091 2.58003.81454 0 0-.6772-.63636-2.13431-1.07757l.12-.13576s1.17431-.02546 2.40861.89091c0 0 1.2342 2.21454 1.2342 4.94665 0 0-.7285 1.2303-2.6228 1.2897z" fill="#fff"/></svg>