<svg fill="none" height="13" viewBox="0 0 16 13" width="16" xmlns="http://www.w3.org/2000/svg"><path clip-rule="evenodd" d="m1.53117 5.3514 8.05495-3.4696c3.83578-1.595432 4.63278-1.87255845 5.15228-1.88170206.1143-.00201657.3698.02629796.5352.16057906.1398.11337.1782.266574.1966.374032.0185.107458.0413.352402.0231.543751-.2078 2.18397-1.1073 7.48406-1.5648 9.93014-.1937 1.0351-.5746 1.3822-.9439 1.4161-.8021.0738-1.4112-.5301-2.1881-1.0393l-3.08242-2.07053c-1.3637-.89862-.47967-1.39254.29751-2.19972.20337-.21132 3.73741-3.42578 3.80581-3.71739.0083-.03646.0165-.17237-.0643-.24419-.0807-.07183-.2-.04696-.286-.02771-.1219.02768-2.06388 1.31127-5.82597 3.85081-.55124.37854-1.05055.56298-1.49787.55332-.49317-.01067-1.44181-.27884-2.14703-.5081-.865-.28116-1.552482-.42983-1.492593-.90734.03116-.2487.373672-.50304 1.027513-.76309z" fill="#fff" fill-rule="evenodd"/></svg>