<svg fill="none" height="13" viewBox="0 0 15 13" width="15" xmlns="http://www.w3.org/2000/svg"><path clip-rule="evenodd" d="m15 1.45183c-.555.27322-1.1573.43748-1.7742.48387.6556-.37588 1.138-.993394 1.3441-1.72043-.5969.360605-1.2518.615254-1.9355.752689-.864-.9167832-2.199-1.215182-3.3711-.753461-1.17206.461721-1.94492 1.590522-1.95147 2.850232 0 .26882.05376.48387.05376.69893-2.48306-.10199-4.79882-1.2795-6.34408-3.225809-.279862.491629-.428015 1.047199-.430112 1.612899-.010146 1.04369.518132 2.01897 1.397852 2.58065-.48862-.0168-.96685-.14555-1.397852-.37634v.05376c-.001838 1.46592 1.034752 2.72785 2.473122 3.01075-.26465.06217-.53477.09818-.80646.10753-.19865.00883-.39759-.00925-.59139-.05377.41569 1.2586 1.57812 2.11965 2.90322 2.15054-1.09097.85383-2.43198 1.32593-3.817202 1.34413-.252094.0088-.504416-.0092-.752688-.0538 1.41342.9034 3.05376 1.388 4.73118 1.3978 5.69892 0 8.76342-4.73114 8.76342-8.7634v-.37634c.5721-.50793 1.0779-1.08597 1.5054-1.72043z" fill="#fff" fill-rule="evenodd"/></svg>